<?xml version="1.0" encoding="UTF-8"?>
<svg xmlns="http://www.w3.org/2000/svg" xmlns:xlink="http://www.w3.org/1999/xlink" width="100pt" height="100pt" viewBox="0 0 100 100" version="1.1">
<g id="surface1">
<path style=" stroke:none;fill-rule:nonzero;fill:rgb(33.72549%,23.921569%,48.627451%);fill-opacity:1;" d="M 0 87.105469 C 0 94.226562 5.773438 100 12.894531 100 L 87.105469 100 C 94.226562 100 100 94.226562 100 87.105469 L 100 12.894531 C 100 5.773438 94.226562 0 87.105469 0 L 12.894531 0 C 5.773438 0 0 5.773438 0 12.894531 Z M 0 87.105469 "/>
<path style=" stroke:none;fill-rule:nonzero;fill:rgb(100%,100%,100%);fill-opacity:1;" d="M 41.46875 44.234375 L 41.46875 30.070312 L 53.933594 30.070312 C 55.121094 30.070312 56.265625 30.171875 57.367188 30.367188 C 58.46875 30.566406 59.445312 30.921875 60.292969 31.429688 C 61.140625 31.9375 61.820312 32.644531 62.328125 33.546875 C 62.835938 34.453125 63.09375 35.613281 63.09375 37.023438 C 63.09375 39.570312 62.328125 41.40625 60.800781 42.539062 C 59.277344 43.667969 57.324219 44.234375 54.949219 44.234375 Z M 28.152344 19.726562 L 28.152344 80.273438 L 57.496094 80.273438 C 60.207031 80.273438 62.851562 79.933594 65.421875 79.257812 C 67.996094 78.578125 70.285156 77.53125 72.292969 76.117188 C 74.300781 74.703125 75.898438 72.882812 77.082031 70.648438 C 78.269531 68.414062 78.863281 65.773438 78.863281 62.71875 C 78.863281 58.933594 77.945312 55.695312 76.109375 53.011719 C 74.269531 50.324219 71.488281 48.445312 67.753906 47.371094 C 70.46875 46.070312 72.519531 44.402344 73.902344 42.367188 C 75.289062 40.332031 75.980469 37.789062 75.980469 34.734375 C 75.980469 31.910156 75.515625 29.535156 74.582031 27.613281 C 73.648438 25.691406 72.335938 24.148438 70.640625 22.992188 C 68.941406 21.832031 66.90625 21 64.535156 20.488281 C 62.160156 19.980469 59.53125 19.726562 56.648438 19.726562 Z M 41.46875 69.929688 L 41.46875 53.308594 L 55.96875 53.308594 C 58.851562 53.308594 61.167969 53.972656 62.921875 55.300781 C 64.675781 56.628906 65.550781 58.847656 65.550781 61.957031 C 65.550781 63.539062 65.28125 64.839844 64.746094 65.855469 C 64.207031 66.875 63.488281 67.679688 62.582031 68.273438 C 61.679688 68.867188 60.632812 69.292969 59.445312 69.546875 C 58.257812 69.800781 57.015625 69.929688 55.714844 69.929688 Z M 41.46875 69.929688 "/>
</g>
</svg>
