<?xml version="1.0" encoding="UTF-8"?>
<svg xmlns="http://www.w3.org/2000/svg" xmlns:xlink="http://www.w3.org/1999/xlink" width="1250pt" height="1874pt" viewBox="0 0 1250 1874" version="1.1">
<g id="surface1">
<path style=" stroke:none;fill-rule:nonzero;fill:rgb(3.921569%,81.176471%,51.372549%);fill-opacity:1;" d="M 312.5625 1874 C 485.027344 1874 625 1734.074219 625 1561.667969 L 625 1249.332031 L 312.5625 1249.332031 C 140.097656 1249.332031 0.125 1389.257812 0.125 1561.667969 C 0.125 1734.074219 140.097656 1874 312.5625 1874 Z M 312.5625 1874 "/>
<path style=" stroke:none;fill-rule:nonzero;fill:rgb(63.529412%,34.901961%,100%);fill-opacity:1;" d="M 0.125 937 C 0.125 764.59375 140.097656 624.667969 312.5625 624.667969 L 625 624.667969 L 625 1249.332031 L 312.5625 1249.332031 C 140.097656 1249.332031 0.125 1109.40625 0.125 937 Z M 0.125 937 "/>
<path style=" stroke:none;fill-rule:nonzero;fill:rgb(94.901961%,30.588235%,11.764706%);fill-opacity:1;" d="M 0.125 312.332031 C 0.125 139.925781 140.097656 0 312.5625 0 L 625 0 L 625 624.667969 L 312.5625 624.667969 C 140.097656 624.667969 0.125 484.742188 0.125 312.332031 Z M 0.125 312.332031 "/>
<path style=" stroke:none;fill-rule:nonzero;fill:rgb(100%,44.705882%,38.431373%);fill-opacity:1;" d="M 625 0 L 937.4375 0 C 1109.902344 0 1249.875 139.925781 1249.875 312.332031 C 1249.875 484.742188 1109.902344 624.667969 937.4375 624.667969 L 625 624.667969 Z M 625 0 "/>
<path style=" stroke:none;fill-rule:nonzero;fill:rgb(10.196078%,73.72549%,99.607843%);fill-opacity:1;" d="M 1249.875 937 C 1249.875 1109.40625 1109.902344 1249.332031 937.4375 1249.332031 C 764.972656 1249.332031 625 1109.40625 625 937 C 625 764.59375 764.972656 624.667969 937.4375 624.667969 C 1109.902344 624.667969 1249.875 764.59375 1249.875 937 Z M 1249.875 937 "/>
</g>
</svg>
