<?xml version="1.0" encoding="UTF-8"?>
<svg xmlns="http://www.w3.org/2000/svg" xmlns:xlink="http://www.w3.org/1999/xlink" width="1875pt" height="507pt" viewBox="0 0 1875 507" version="1.1">
<g id="surface1">
<path style=" stroke:none;fill-rule:nonzero;fill:rgb(7.058824%,6.666667%,6.27451%);fill-opacity:1;" d="M 361.207031 217 L 203.667969 217 C 199.601562 217.003906 196.308594 220.300781 196.304688 224.363281 L 196.304688 301.390625 C 196.308594 305.457031 199.601562 308.753906 203.667969 308.761719 L 265.125 308.761719 L 265.125 404.457031 C 265.125 404.457031 251.324219 409.164062 213.175781 409.164062 C 168.164062 409.164062 105.285156 392.714844 105.285156 254.449219 C 105.285156 116.160156 170.761719 97.960938 232.226562 97.960938 C 285.4375 97.960938 308.359375 107.332031 322.945312 111.84375 C 327.527344 113.246094 331.765625 108.6875 331.765625 104.617188 L 349.339844 30.199219 C 349.339844 28.296875 348.695312 26.003906 346.527344 24.445312 C 340.605469 20.222656 304.46875 0 213.175781 0 C 108.003906 0 0.121094 44.75 0.121094 259.839844 C 0.121094 474.949219 123.636719 507 227.71875 507 C 313.898438 507 366.179688 470.171875 366.179688 470.171875 C 368.332031 468.976562 368.566406 465.96875 368.566406 464.585938 L 368.566406 224.359375 C 368.566406 220.300781 365.273438 217 361.207031 217 M 1173.105469 25.773438 C 1173.125 23.820312 1172.363281 21.941406 1170.988281 20.550781 C 1169.617188 19.164062 1167.746094 18.378906 1165.796875 18.371094 L 1077.085938 18.371094 C 1073.015625 18.386719 1069.722656 21.699219 1069.738281 25.773438 L 1069.761719 197.199219 L 931.496094 197.199219 L 931.496094 25.773438 C 931.511719 23.820312 930.746094 21.941406 929.375 20.550781 C 928 19.164062 926.128906 18.378906 924.175781 18.371094 L 835.476562 18.371094 C 831.410156 18.390625 828.128906 21.707031 828.148438 25.773438 L 828.148438 489.945312 C 828.148438 494.035156 831.4375 497.367188 835.476562 497.367188 L 924.175781 497.367188 C 928.234375 497.367188 931.496094 494.03125 931.496094 489.945312 L 931.496094 291.398438 L 1069.761719 291.398438 L 1069.519531 489.945312 C 1069.519531 494.035156 1072.816406 497.367188 1076.871094 497.367188 L 1165.789062 497.367188 C 1169.851562 497.367188 1173.097656 494.03125 1173.105469 489.945312 L 1173.105469 25.773438 M 528.597656 86.6875 C 528.597656 54.742188 502.988281 28.929688 471.394531 28.929688 C 439.832031 28.929688 414.207031 54.742188 414.207031 86.6875 C 414.207031 118.59375 439.832031 144.46875 471.394531 144.46875 C 502.988281 144.46875 528.597656 118.59375 528.597656 86.6875 M 522.253906 392.03125 L 522.253906 177.769531 C 522.265625 173.703125 518.980469 170.394531 514.914062 170.371094 L 426.492188 170.371094 C 422.433594 170.371094 418.804688 174.554688 418.804688 178.628906 L 418.804688 485.597656 C 418.804688 494.621094 424.425781 497.300781 431.703125 497.300781 L 511.371094 497.300781 C 520.109375 497.300781 522.253906 493.003906 522.253906 485.457031 L 522.253906 392.03125 M 1510.21875 171.070312 L 1422.195312 171.070312 C 1418.15625 171.070312 1414.871094 174.394531 1414.871094 178.492188 L 1414.871094 406.089844 C 1414.871094 406.089844 1392.507812 422.453125 1360.769531 422.453125 C 1329.03125 422.453125 1320.609375 408.050781 1320.609375 376.972656 L 1320.609375 178.492188 C 1320.609375 174.394531 1317.328125 171.070312 1313.289062 171.070312 L 1223.949219 171.070312 C 1219.921875 171.070312 1216.613281 174.394531 1216.613281 178.492188 L 1216.613281 392 C 1216.613281 484.308594 1268.0625 506.890625 1338.839844 506.890625 C 1396.902344 506.890625 1443.710938 474.816406 1443.710938 474.816406 C 1443.710938 474.816406 1445.941406 491.71875 1446.949219 493.722656 C 1447.957031 495.722656 1450.585938 497.742188 1453.425781 497.742188 L 1510.261719 497.492188 C 1514.292969 497.492188 1517.597656 494.15625 1517.597656 490.082031 L 1517.566406 178.496094 C 1517.566406 174.394531 1514.277344 171.070312 1510.21875 171.070312 M 1716.085938 422.171875 C 1685.554688 421.242188 1664.84375 407.382812 1664.84375 407.382812 L 1664.84375 260.394531 C 1664.84375 260.394531 1685.273438 247.871094 1710.335938 245.632812 C 1742.035156 242.792969 1772.578125 252.371094 1772.578125 327.980469 C 1772.582031 407.71875 1758.800781 423.457031 1716.085938 422.171875 Z M 1750.804688 160.648438 C 1700.808594 160.648438 1666.804688 182.953125 1666.804688 182.953125 L 1666.804688 25.777344 C 1666.804688 21.675781 1663.527344 18.371094 1659.484375 18.371094 L 1570.527344 18.371094 C 1566.457031 18.390625 1563.175781 21.707031 1563.199219 25.777344 L 1563.199219 489.945312 C 1563.199219 494.035156 1566.484375 497.367188 1570.539062 497.367188 L 1632.261719 497.367188 C 1635.039062 497.367188 1637.140625 495.933594 1638.695312 493.425781 C 1640.230469 490.933594 1642.445312 472.027344 1642.445312 472.027344 C 1642.445312 472.027344 1678.820312 506.496094 1747.675781 506.496094 C 1828.515625 506.496094 1874.878906 465.492188 1874.878906 322.417969 C 1874.878906 179.34375 1800.835938 160.648438 1750.804688 160.648438 M 777.195312 170.332031 L 710.65625 170.332031 L 710.554688 82.425781 C 710.554688 79.097656 708.839844 77.433594 704.996094 77.433594 L 614.320312 77.433594 C 610.792969 77.433594 608.902344 78.988281 608.902344 82.375 L 608.902344 173.21875 C 608.902344 173.21875 563.460938 184.183594 560.390625 185.074219 C 557.242188 185.984375 555.074219 188.867188 555.078125 192.148438 L 555.078125 249.230469 C 555.078125 253.339844 558.355469 256.640625 562.410156 256.640625 L 608.902344 256.640625 L 608.902344 393.96875 C 608.902344 495.972656 680.449219 505.992188 728.730469 505.992188 C 750.792969 505.992188 777.179688 498.910156 781.539062 497.296875 C 784.171875 496.328125 785.703125 493.597656 785.703125 490.640625 L 785.777344 427.84375 C 785.777344 423.746094 782.316406 420.4375 778.421875 420.4375 C 774.546875 420.4375 764.625 422.015625 754.414062 422.015625 C 721.730469 422.015625 710.65625 406.816406 710.65625 387.148438 L 710.652344 256.636719 L 777.195312 256.636719 C 781.253906 256.636719 784.535156 253.332031 784.535156 249.226562 L 784.535156 177.722656 C 784.542969 175.769531 783.777344 173.890625 782.398438 172.503906 C 781.023438 171.117188 779.148438 170.335938 777.195312 170.332031 "/>
</g>
</svg>
