<?xml version="1.0" encoding="UTF-8"?>
<svg xmlns="http://www.w3.org/2000/svg" xmlns:xlink="http://www.w3.org/1999/xlink" width="384pt" height="384pt" viewBox="0 0 384 384" version="1.1">
<g id="surface1">
<path style=" stroke:none;fill-rule:nonzero;fill:rgb(89.411765%,30.196078%,14.901961%);fill-opacity:1;" d="M 80.734375 353.15625 L 55.976562 75.464844 L 328.023438 75.464844 L 303.242188 353.113281 L 191.832031 384 Z M 80.734375 353.15625 "/>
<path style=" stroke:none;fill-rule:nonzero;fill:rgb(94.509804%,39.607843%,16.078431%);fill-opacity:1;" d="M 192 360.390625 L 282.023438 335.433594 L 303.203125 98.171875 L 192 98.171875 Z M 192 360.390625 "/>
<path style=" stroke:none;fill-rule:nonzero;fill:rgb(92.156863%,92.156863%,92.156863%);fill-opacity:1;" d="M 192 201.164062 L 146.933594 201.164062 L 143.820312 166.285156 L 192 166.285156 L 192 132.230469 L 106.597656 132.230469 L 107.414062 141.367188 L 115.785156 235.21875 L 192 235.21875 Z M 192 201.164062 "/>
<path style=" stroke:none;fill-rule:nonzero;fill:rgb(92.156863%,92.156863%,92.156863%);fill-opacity:1;" d="M 192 289.613281 L 191.851562 289.65625 L 153.921875 279.414062 L 151.496094 252.25 L 117.308594 252.25 L 122.078125 305.726562 L 191.84375 325.09375 L 192 325.050781 Z M 192 289.613281 "/>
<path style=" stroke:none;fill-rule:nonzero;fill:rgb(0%,0%,0%);fill-opacity:1;" d="M 81.285156 0 L 98.59375 0 L 98.59375 17.101562 L 114.425781 17.101562 L 114.425781 0 L 131.734375 0 L 131.734375 51.78125 L 114.425781 51.78125 L 114.425781 34.441406 L 98.59375 34.441406 L 98.59375 51.78125 L 81.289062 51.78125 L 81.289062 0 Z M 81.285156 0 "/>
<path style=" stroke:none;fill-rule:nonzero;fill:rgb(0%,0%,0%);fill-opacity:1;" d="M 154.496094 17.171875 L 139.257812 17.171875 L 139.257812 0 L 187.046875 0 L 187.046875 17.171875 L 171.804688 17.171875 L 171.804688 51.78125 L 154.496094 51.78125 Z M 154.496094 17.171875 "/>
<path style=" stroke:none;fill-rule:nonzero;fill:rgb(0%,0%,0%);fill-opacity:1;" d="M 194.632812 0 L 212.679688 0 L 223.78125 18.195312 L 234.871094 0 L 252.925781 0 L 252.925781 51.78125 L 235.691406 51.78125 L 235.691406 26.117188 L 223.78125 44.527344 L 223.484375 44.527344 L 211.566406 26.117188 L 211.566406 51.78125 L 194.632812 51.78125 Z M 194.632812 0 "/>
<path style=" stroke:none;fill-rule:nonzero;fill:rgb(0%,0%,0%);fill-opacity:1;" d="M 261.539062 0 L 278.851562 0 L 278.851562 34.667969 L 303.191406 34.667969 L 303.191406 51.78125 L 261.539062 51.78125 Z M 261.539062 0 "/>
<path style=" stroke:none;fill-rule:nonzero;fill:rgb(100%,100%,100%);fill-opacity:1;" d="M 191.882812 201.164062 L 191.882812 235.21875 L 233.820312 235.21875 L 229.867188 279.390625 L 191.882812 289.644531 L 191.882812 325.078125 L 261.703125 305.726562 L 262.214844 299.972656 L 270.21875 210.308594 L 271.050781 201.164062 Z M 191.882812 201.164062 "/>
<path style=" stroke:none;fill-rule:nonzero;fill:rgb(100%,100%,100%);fill-opacity:1;" d="M 191.882812 132.230469 L 191.882812 166.285156 L 274.148438 166.285156 L 274.832031 158.632812 L 276.382812 141.367188 L 277.199219 132.230469 Z M 191.882812 132.230469 "/>
</g>
</svg>
