<?xml version="1.0" encoding="UTF-8"?>
<svg xmlns="http://www.w3.org/2000/svg" xmlns:xlink="http://www.w3.org/1999/xlink" width="1332pt" height="1875pt" viewBox="0 0 1332 1875" version="1.1">
<g id="surface1">
<path style=" stroke:none;fill-rule:nonzero;fill:rgb(90.196078%,63.921569%,16.078431%);fill-opacity:1;" d="M 1332 367.425781 L 0 367.425781 L 124.875 1721.550781 L 665.925781 1875 L 1206.976562 1721.550781 Z M 1332 367.425781 "/>
<path style=" stroke:none;fill-rule:nonzero;fill:rgb(94.509804%,74.901961%,13.333333%);fill-opacity:1;" d="M 665.925781 477.75 L 665.925781 1760.25 L 1104.300781 1636.050781 L 1210.949219 477.75 Z M 665.925781 477.75 "/>
<path style=" stroke:none;fill-rule:nonzero;fill:rgb(100%,100%,100%);fill-opacity:1;" d="M 1014.675781 643.875 L 340.648438 643.875 L 293.699219 1150.875 L 294.675781 1147.726562 L 867.300781 1147.726562 L 848.625 1362.226562 L 665.925781 1414.800781 L 480.523438 1361.398438 L 469.425781 1231.574219 L 301.125 1231.574219 L 325.125 1491 L 665.925781 1587.75 L 1006.875 1491 L 1053.824219 981.824219 L 446.101562 981.824219 L 453.898438 812.175781 L 875.550781 812.175781 L 881.851562 909.375 L 1051.648438 909.375 Z M 1014.675781 643.875 "/>
<path style=" stroke:none;fill-rule:nonzero;fill:rgb(92.156863%,92.156863%,92.156863%);fill-opacity:1;" d="M 666.074219 643.875 L 340.648438 643.875 L 293.699219 1150.875 L 294.675781 1147.726562 L 666.074219 1147.726562 L 666.074219 982.351562 L 469.800781 982.351562 L 477.601562 812.699219 L 666.074219 812.699219 Z M 469.800781 1231.574219 L 301.125 1231.574219 L 325.125 1490.851562 L 665.925781 1587.449219 L 665.925781 1414.949219 L 480.523438 1361.398438 Z M 469.800781 1231.574219 "/>
<path style=" stroke:none;fill-rule:nonzero;fill:rgb(13.72549%,12.156863%,12.54902%);fill-opacity:1;" d="M 536.398438 167.699219 L 417.824219 167.699219 L 417.824219 252.824219 L 621.226562 252.824219 L 621.226562 0 L 536.398438 0 Z M 914.101562 1.351562 L 707.398438 1.351562 L 707.398438 89.851562 C 735 117.449219 749.398438 130.726562 790.050781 170.699219 L 707.398438 170.699219 L 707.398438 251.398438 L 914.101562 251.398438 L 914.101562 170.851562 L 831.449219 90 L 914.101562 90 Z M 914.101562 1.351562 "/>
</g>
</svg>
