<?xml version="1.0" encoding="UTF-8"?>
<svg xmlns="http://www.w3.org/2000/svg" xmlns:xlink="http://www.w3.org/1999/xlink" width="1875pt" height="1829pt" viewBox="0 0 1875 1829" version="1.1">
<defs>
<radialGradient id="radial0" gradientUnits="userSpaceOnUse" cx="-183.69" cy="328.972" fx="-183.69" fy="328.972" r="0.76" gradientTransform="matrix(1718.753727,0,0,1664.521276,316362.070349,-547127.789529)">
<stop offset="0" style="stop-color:rgb(20.392157%,21.176471%,30.588235%);stop-opacity:0.980392;"/>
<stop offset="1" style="stop-color:rgb(4.705882%,3.137255%,14.117647%);stop-opacity:1;"/>
</radialGradient>
</defs>
<g id="surface1">
<path style=" stroke:none;fill-rule:nonzero;fill:url(#radial0);" d="M 78.125 78.332031 L 1796.878906 78.332031 L 1796.878906 1750.667969 L 78.125 1750.667969 Z M 78.125 78.332031 "/>
<path style=" stroke:none;fill-rule:nonzero;fill:rgb(19.215686%,77.254902%,94.117647%);fill-opacity:1;" d="M 78.125 78.332031 L 1796.878906 78.332031 L 1796.878906 1750.667969 L 78.125 1750.667969 Z M 0 1828.816406 L 1875.003906 1828.816406 L 1875.003906 0.1875 L 0 0.1875 Z M 1264.066406 750.390625 C 1202.34375 750.390625 1181.253906 781.648438 1181.253906 807.4375 C 1181.253906 835.570312 1195.316406 855.105469 1278.128906 898.089844 C 1400.785156 957.480469 1439.066406 1014.527344 1439.066406 1098.144531 C 1439.066406 1223.179688 1343.753906 1290.382812 1214.847656 1290.382812 C 1146.878906 1290.382812 1088.28125 1276.316406 1054.6875 1256.78125 C 1049.222656 1254.4375 1048.441406 1250.53125 1048.441406 1244.277344 L 1048.441406 1129.402344 C 1048.441406 1121.589844 1052.347656 1119.242188 1057.816406 1123.152344 C 1107.035156 1155.195312 1163.285156 1169.257812 1214.847656 1169.257812 C 1276.566406 1169.257812 1302.347656 1143.46875 1302.347656 1108.300781 C 1302.347656 1080.171875 1284.378906 1055.164062 1205.46875 1014.527344 C 1094.53125 961.386719 1048.441406 907.46875 1048.441406 817.597656 C 1048.441406 716.789062 1127.347656 633.171875 1264.066406 633.171875 C 1331.253906 633.171875 1378.128906 643.332031 1403.910156 655.054688 C 1410.15625 658.960938 1411.71875 665.210938 1411.71875 670.679688 L 1411.71875 777.738281 C 1411.71875 783.992188 1407.816406 787.902344 1400 785.554688 C 1365.625 763.679688 1314.84375 750.390625 1264.066406 750.390625 Z M 592.1875 843.386719 C 610.15625 844.949219 624.222656 844.949219 655.46875 844.949219 C 746.878906 844.949219 832.816406 812.910156 832.816406 688.660156 C 832.816406 589.414062 771.09375 539.398438 667.191406 539.398438 C 635.941406 539.398438 606.25 540.960938 592.1875 541.742188 Z M 453.128906 428.429688 C 453.128906 422.957031 464.066406 419.046875 470.3125 419.046875 C 520.316406 416.703125 594.535156 415.140625 671.878906 415.140625 C 888.28125 415.140625 972.65625 533.925781 972.65625 685.53125 C 972.65625 884.019531 828.90625 969.203125 652.34375 969.203125 C 622.660156 969.203125 612.503906 967.640625 591.40625 967.640625 L 591.40625 1267.722656 C 591.40625 1273.972656 589.0625 1277.097656 582.03125 1277.097656 L 462.5 1277.097656 C 456.253906 1277.097656 453.125 1274.753906 453.125 1267.722656 L 453.125 428.429688 Z M 453.128906 428.429688 "/>
</g>
</svg>
